<?xml version="1.0" encoding="UTF-8" standalone="no"?>
<!DOCTYPE svg PUBLIC "-//W3C//DTD SVG 1.1//EN" "http://www.w3.org/Graphics/SVG/1.1/DTD/svg11.dtd">
<svg width="100%" height="100%" viewBox="0 0 1280 720" version="1.1" xmlns="http://www.w3.org/2000/svg" xmlns:xlink="http://www.w3.org/1999/xlink" xml:space="preserve" xmlns:serif="http://www.serif.com/" style="fill-rule:evenodd;clip-rule:evenodd;stroke-linejoin:round;stroke-miterlimit:2;">
    <g transform="matrix(12.1056,0,0,12.1056,-764.332,-2163.11)">
        <g transform="matrix(0.225816,0,0,0.183674,63.0378,180.675)">
            <path d="M82.036,57.51C65.243,57.51 52.49,65.081 43.564,79.962L43.564,61.691L12.98,61.691L12.98,245.637L46.538,245.637L46.538,174.311C55.257,186.32 67.166,192.325 82.053,192.325C97.79,192.325 110.539,186.059 120.096,173.527C129.866,160.996 134.751,144.795 134.751,124.934C134.751,105.046 129.866,88.839 120.096,76.307C110.306,63.776 97.553,57.51 82.036,57.51ZM101.831,124.917C101.831,144.788 90.347,158.907 74.184,158.907C58.022,158.907 46.538,144.527 46.538,124.917C46.538,105.307 58.022,90.928 74.184,90.928C90.347,90.928 101.831,105.307 101.831,124.917Z" style="fill:rgb(92,93,141);fill-rule:nonzero;"/>
        </g>
        <g transform="matrix(-0.225816,2.76545e-17,-2.24935e-17,-0.183674,139.838,224.979)">
            <path d="M184.282,37.387C191.718,27.979 191.718,12.299 184.282,2.891C180.671,-2.074 175.785,-4.426 170.05,-4.426C164.314,-4.426 159.429,-2.074 155.818,2.891C148.382,12.299 148.382,27.979 155.818,37.387C159.429,42.091 164.314,44.443 170.05,44.443C175.785,44.443 180.671,42.091 184.282,37.387ZM186.829,179.589L186.829,61.691L153.483,61.691L153.483,179.589L186.829,179.589Z" style="fill:rgb(92,93,141);fill-rule:nonzero;"/>
        </g>
        <g transform="matrix(0.225816,0,0,0.183674,63.0378,180.675)">
            <path d="M282.057,57.51C265.264,57.51 252.511,65.081 243.585,79.962L243.585,61.691L213.001,61.691L213.001,245.637L246.559,245.637L246.559,174.311C255.278,186.32 267.187,192.325 282.074,192.325C297.811,192.325 310.56,186.059 320.117,173.527C329.887,160.996 334.772,144.795 334.772,124.934C334.772,105.046 329.887,88.839 320.117,76.307C310.327,63.776 297.574,57.51 282.057,57.51ZM301.852,124.917C301.852,144.788 290.368,158.907 274.205,158.907C258.043,158.907 246.559,144.527 246.559,124.917C246.559,105.307 258.043,90.928 274.205,90.928C290.368,90.928 301.852,105.307 301.852,124.917Z" style="fill:rgb(92,93,141);fill-rule:nonzero;"/>
        </g>
        <g transform="matrix(0.218122,-0.0584456,0.0475382,0.177415,60.1719,204.794)">
            <path d="M403.017,161.259C389.417,161.259 379.854,150.532 377.304,132.741L450.62,132.741C451.682,128.305 452.319,123.868 452.319,118.91C452.319,100.355 447.644,85.441 438.081,74.216C428.519,62.991 415.98,57.51 400.255,57.51C383.891,57.51 370.716,63.775 360.94,76.305C351.165,88.578 346.277,104.804 346.277,124.912C346.277,145.038 351.59,161.259 362.003,173.79C372.416,186.06 386.016,192.325 402.805,192.325C426.393,192.325 442.757,179.533 451.895,153.672L427.881,142.421C422.568,154.98 414.28,161.259 403.017,161.259ZM377.304,109.776C380.066,94.336 387.292,86.746 399.405,86.746C411.518,86.746 418.531,94.336 420.868,109.776L377.304,109.776Z" style="fill:rgb(92,93,141);fill-rule:nonzero;"/>
        </g>
    </g>
</svg>
